# Hong Kong double-decker bus prototype
mtllib hk_double_decker_bus.mtl

v -5.300000 0.050000 -1.275000
v 5.300000 0.050000 -1.275000
v 5.300000 3.250000 -1.275000
v -5.300000 3.250000 -1.275000
v -5.300000 0.050000 1.275000
v 5.300000 0.050000 1.275000
v 5.300000 3.250000 1.275000
v -5.300000 3.250000 1.275000
v -4.800000 2.750000 -1.175000
v 4.800000 2.750000 -1.175000
v 4.800000 4.950000 -1.175000
v -4.800000 4.950000 -1.175000
v -4.800000 2.750000 1.175000
v 4.800000 2.750000 1.175000
v 4.800000 4.950000 1.175000
v -4.800000 4.950000 1.175000
v 4.300000 3.800000 -1.100000
v 5.100000 3.800000 -1.100000
v 5.100000 4.800000 -1.100000
v 4.300000 4.800000 -1.100000
v 4.300000 3.800000 1.100000
v 5.100000 3.800000 1.100000
v 5.100000 4.800000 1.100000
v 4.300000 4.800000 1.100000
v -3.950000 2.700000 -1.075000
v -2.650000 2.700000 -1.075000
v -2.650000 3.500000 -1.075000
v -3.950000 3.500000 -1.075000
v -3.950000 2.700000 1.075000
v -2.650000 2.700000 1.075000
v -2.650000 3.500000 1.075000
v -3.950000 3.500000 1.075000
v -1.650000 2.700000 -1.075000
v -0.350000 2.700000 -1.075000
v -0.350000 3.500000 -1.075000
v -1.650000 3.500000 -1.075000
v -1.650000 2.700000 1.075000
v -0.350000 2.700000 1.075000
v -0.350000 3.500000 1.075000
v -1.650000 3.500000 1.075000
v 0.650000 2.700000 -1.075000
v 1.950000 2.700000 -1.075000
v 1.950000 3.500000 -1.075000
v 0.650000 3.500000 -1.075000
v 0.650000 2.700000 1.075000
v 1.950000 2.700000 1.075000
v 1.950000 3.500000 1.075000
v 0.650000 3.500000 1.075000
v 2.950000 2.700000 -1.075000
v 4.250000 2.700000 -1.075000
v 4.250000 3.500000 -1.075000
v 2.950000 3.500000 -1.075000
v 2.950000 2.700000 1.075000
v 4.250000 2.700000 1.075000
v 4.250000 3.500000 1.075000
v 2.950000 3.500000 1.075000
v -3.650000 4.775000 -1.060000
v -2.150000 4.775000 -1.060000
v -2.150000 5.625000 -1.060000
v -3.650000 5.625000 -1.060000
v -3.650000 4.775000 1.060000
v -2.150000 4.775000 1.060000
v -2.150000 5.625000 1.060000
v -3.650000 5.625000 1.060000
v -1.150000 4.775000 -1.060000
v 0.350000 4.775000 -1.060000
v 0.350000 5.625000 -1.060000
v -1.150000 5.625000 -1.060000
v -1.150000 4.775000 1.060000
v 0.350000 4.775000 1.060000
v 0.350000 5.625000 1.060000
v -1.150000 5.625000 1.060000
v 1.350000 4.775000 -1.060000
v 2.850000 4.775000 -1.060000
v 2.850000 5.625000 -1.060000
v 1.350000 5.625000 -1.060000
v 1.350000 4.775000 1.060000
v 2.850000 4.775000 1.060000
v 2.850000 5.625000 1.060000
v 1.350000 5.625000 1.060000
v 4.975000 2.400000 -1.000000
v 5.325000 2.400000 -1.000000
v 5.325000 3.400000 -1.000000
v 4.975000 3.400000 -1.000000
v 4.975000 2.400000 1.000000
v 5.325000 2.400000 1.000000
v 5.325000 3.400000 1.000000
v 4.975000 3.400000 1.000000
v -4.875000 0.700000 -1.100000
v -4.525000 0.700000 -1.100000
v -4.525000 2.800000 -1.100000
v -4.875000 2.800000 -1.100000
v -4.875000 0.700000 1.100000
v -4.525000 0.700000 1.100000
v -4.525000 2.800000 1.100000
v -4.875000 2.800000 1.100000
v 5.225000 1.700000 0.600000
v 5.475000 1.700000 0.600000
v 5.475000 1.900000 0.600000
v 5.225000 1.900000 0.600000
v 5.225000 1.700000 1.000000
v 5.475000 1.700000 1.000000
v 5.475000 1.900000 1.000000
v 5.225000 1.900000 1.000000
v 5.225000 1.700000 -1.000000
v 5.475000 1.700000 -1.000000
v 5.475000 1.900000 -1.000000
v 5.225000 1.900000 -1.000000
v 5.225000 1.700000 -0.600000
v 5.475000 1.700000 -0.600000
v 5.475000 1.900000 -0.600000
v 5.225000 1.900000 -0.600000
v -2.580000 0.225000 -1.100000
v -2.636269 0.225000 -0.890000
v -2.790000 0.225000 -0.736269
v -3.000000 0.225000 -0.680000
v -3.210000 0.225000 -0.736269
v -3.363731 0.225000 -0.890000
v -3.420000 0.225000 -1.100000
v -3.363731 0.225000 -1.310000
v -3.210000 0.225000 -1.463731
v -3.000000 0.225000 -1.520000
v -2.790000 0.225000 -1.463731
v -2.636269 0.225000 -1.310000
v -2.580000 0.675000 -1.100000
v -2.636269 0.675000 -0.890000
v -2.790000 0.675000 -0.736269
v -3.000000 0.675000 -0.680000
v -3.210000 0.675000 -0.736269
v -3.363731 0.675000 -0.890000
v -3.420000 0.675000 -1.100000
v -3.363731 0.675000 -1.310000
v -3.210000 0.675000 -1.463731
v -3.000000 0.675000 -1.520000
v -2.790000 0.675000 -1.463731
v -2.636269 0.675000 -1.310000
v -3.000000 0.225000 -1.100000
v -3.000000 0.675000 -1.100000
v -2.580000 0.225000 1.100000
v -2.636269 0.225000 1.310000
v -2.790000 0.225000 1.463731
v -3.000000 0.225000 1.520000
v -3.210000 0.225000 1.463731
v -3.363731 0.225000 1.310000
v -3.420000 0.225000 1.100000
v -3.363731 0.225000 0.890000
v -3.210000 0.225000 0.736269
v -3.000000 0.225000 0.680000
v -2.790000 0.225000 0.736269
v -2.636269 0.225000 0.890000
v -2.580000 0.675000 1.100000
v -2.636269 0.675000 1.310000
v -2.790000 0.675000 1.463731
v -3.000000 0.675000 1.520000
v -3.210000 0.675000 1.463731
v -3.363731 0.675000 1.310000
v -3.420000 0.675000 1.100000
v -3.363731 0.675000 0.890000
v -3.210000 0.675000 0.736269
v -3.000000 0.675000 0.680000
v -2.790000 0.675000 0.736269
v -2.636269 0.675000 0.890000
v -3.000000 0.225000 1.100000
v -3.000000 0.675000 1.100000
v 3.420000 0.225000 -1.100000
v 3.363731 0.225000 -0.890000
v 3.210000 0.225000 -0.736269
v 3.000000 0.225000 -0.680000
v 2.790000 0.225000 -0.736269
v 2.636269 0.225000 -0.890000
v 2.580000 0.225000 -1.100000
v 2.636269 0.225000 -1.310000
v 2.790000 0.225000 -1.463731
v 3.000000 0.225000 -1.520000
v 3.210000 0.225000 -1.463731
v 3.363731 0.225000 -1.310000
v 3.420000 0.675000 -1.100000
v 3.363731 0.675000 -0.890000
v 3.210000 0.675000 -0.736269
v 3.000000 0.675000 -0.680000
v 2.790000 0.675000 -0.736269
v 2.636269 0.675000 -0.890000
v 2.580000 0.675000 -1.100000
v 2.636269 0.675000 -1.310000
v 2.790000 0.675000 -1.463731
v 3.000000 0.675000 -1.520000
v 3.210000 0.675000 -1.463731
v 3.363731 0.675000 -1.310000
v 3.000000 0.225000 -1.100000
v 3.000000 0.675000 -1.100000
v 3.420000 0.225000 1.100000
v 3.363731 0.225000 1.310000
v 3.210000 0.225000 1.463731
v 3.000000 0.225000 1.520000
v 2.790000 0.225000 1.463731
v 2.636269 0.225000 1.310000
v 2.580000 0.225000 1.100000
v 2.636269 0.225000 0.890000
v 2.790000 0.225000 0.736269
v 3.000000 0.225000 0.680000
v 3.210000 0.225000 0.736269
v 3.363731 0.225000 0.890000
v 3.420000 0.675000 1.100000
v 3.363731 0.675000 1.310000
v 3.210000 0.675000 1.463731
v 3.000000 0.675000 1.520000
v 2.790000 0.675000 1.463731
v 2.636269 0.675000 1.310000
v 2.580000 0.675000 1.100000
v 2.636269 0.675000 0.890000
v 2.790000 0.675000 0.736269
v 3.000000 0.675000 0.680000
v 3.210000 0.675000 0.736269
v 3.363731 0.675000 0.890000
v 3.000000 0.225000 1.100000
v 3.000000 0.675000 1.100000
g lower_deck
usemtl bus_red
f 1 2 3 4
f 5 6 7 8
f 1 5 8 4
f 2 6 7 3
f 4 3 7 8
f 1 2 6 5

g upper_deck
usemtl bus_red
f 1 2 3 4
f 5 6 7 8
f 1 5 8 4
f 2 6 7 3
f 4 3 7 8
f 1 2 6 5

g front_cabin
usemtl bus_trim
f 1 2 3 4
f 5 6 7 8
f 1 5 8 4
f 2 6 7 3
f 4 3 7 8
f 1 2 6 5

g window_-3.3
usemtl bus_window
f 1 2 3 4
f 5 6 7 8
f 1 5 8 4
f 2 6 7 3
f 4 3 7 8
f 1 2 6 5

g window_-1.0
usemtl bus_window
f 1 2 3 4
f 5 6 7 8
f 1 5 8 4
f 2 6 7 3
f 4 3 7 8
f 1 2 6 5

g window_1.3
usemtl bus_window
f 1 2 3 4
f 5 6 7 8
f 1 5 8 4
f 2 6 7 3
f 4 3 7 8
f 1 2 6 5

g window_3.6
usemtl bus_window
f 1 2 3 4
f 5 6 7 8
f 1 5 8 4
f 2 6 7 3
f 4 3 7 8
f 1 2 6 5

g upper_window_-2.9
usemtl bus_window
f 1 2 3 4
f 5 6 7 8
f 1 5 8 4
f 2 6 7 3
f 4 3 7 8
f 1 2 6 5

g upper_window_-0.4
usemtl bus_window
f 1 2 3 4
f 5 6 7 8
f 1 5 8 4
f 2 6 7 3
f 4 3 7 8
f 1 2 6 5

g upper_window_2.1
usemtl bus_window
f 1 2 3 4
f 5 6 7 8
f 1 5 8 4
f 2 6 7 3
f 4 3 7 8
f 1 2 6 5

g windshield
usemtl bus_window
f 1 2 3 4
f 5 6 7 8
f 1 5 8 4
f 2 6 7 3
f 4 3 7 8
f 1 2 6 5

g rear_glass
usemtl bus_window
f 1 2 3 4
f 5 6 7 8
f 1 5 8 4
f 2 6 7 3
f 4 3 7 8
f 1 2 6 5

g front_light_left
usemtl bus_light
f 1 2 3 4
f 5 6 7 8
f 1 5 8 4
f 2 6 7 3
f 4 3 7 8
f 1 2 6 5

g front_light_right
usemtl bus_light
f 1 2 3 4
f 5 6 7 8
f 1 5 8 4
f 2 6 7 3
f 4 3 7 8
f 1 2 6 5

g wheel_-3.0_-1.1
usemtl bus_tire
f 114 115 127 126
f 115 116 128 127
f 116 117 129 128
f 117 118 130 129
f 118 119 131 130
f 119 120 132 131
f 120 121 133 132
f 121 122 134 133
f 122 123 135 134
f 123 124 136 135
f 124 125 137 136
f 125 114 126 137
f 138 114 115
f 139 127 126
f 138 115 116
f 139 128 127
f 138 116 117
f 139 129 128
f 138 117 118
f 139 130 129
f 138 118 119
f 139 131 130
f 138 119 120
f 139 132 131
f 138 120 121
f 139 133 132
f 138 121 122
f 139 134 133
f 138 122 123
f 139 135 134
f 138 123 124
f 139 136 135
f 138 124 125
f 139 137 136
f 138 125 114
f 139 126 137

g wheel_-3.0_1.1
usemtl bus_tire
f 140 141 153 152
f 141 142 154 153
f 142 143 155 154
f 143 144 156 155
f 144 145 157 156
f 145 146 158 157
f 146 147 159 158
f 147 148 160 159
f 148 149 161 160
f 149 150 162 161
f 150 151 163 162
f 151 140 152 163
f 164 140 141
f 165 153 152
f 164 141 142
f 165 154 153
f 164 142 143
f 165 155 154
f 164 143 144
f 165 156 155
f 164 144 145
f 165 157 156
f 164 145 146
f 165 158 157
f 164 146 147
f 165 159 158
f 164 147 148
f 165 160 159
f 164 148 149
f 165 161 160
f 164 149 150
f 165 162 161
f 164 150 151
f 165 163 162
f 164 151 140
f 165 152 163

g wheel_3.0_-1.1
usemtl bus_tire
f 166 167 179 178
f 167 168 180 179
f 168 169 181 180
f 169 170 182 181
f 170 171 183 182
f 171 172 184 183
f 172 173 185 184
f 173 174 186 185
f 174 175 187 186
f 175 176 188 187
f 176 177 189 188
f 177 166 178 189
f 190 166 167
f 191 179 178
f 190 167 168
f 191 180 179
f 190 168 169
f 191 181 180
f 190 169 170
f 191 182 181
f 190 170 171
f 191 183 182
f 190 171 172
f 191 184 183
f 190 172 173
f 191 185 184
f 190 173 174
f 191 186 185
f 190 174 175
f 191 187 186
f 190 175 176
f 191 188 187
f 190 176 177
f 191 189 188
f 190 177 166
f 191 178 189

g wheel_3.0_1.1
usemtl bus_tire
f 192 193 205 204
f 193 194 206 205
f 194 195 207 206
f 195 196 208 207
f 196 197 209 208
f 197 198 210 209
f 198 199 211 210
f 199 200 212 211
f 200 201 213 212
f 201 202 214 213
f 202 203 215 214
f 203 192 204 215
f 216 192 193
f 217 205 204
f 216 193 194
f 217 206 205
f 216 194 195
f 217 207 206
f 216 195 196
f 217 208 207
f 216 196 197
f 217 209 208
f 216 197 198
f 217 210 209
f 216 198 199
f 217 211 210
f 216 199 200
f 217 212 211
f 216 200 201
f 217 213 212
f 216 201 202
f 217 214 213
f 216 202 203
f 217 215 214
f 216 203 192
f 217 204 215

